<?xml version="1.0" encoding="utf-8"?>
<svg xmlns="http://www.w3.org/2000/svg"
     xmlns:xlink="http://www.w3.org/1999/xlink"
     x="0"
     y="0"
     width="54"
     height="54"
     viewBox="0 0 54 54">
  <style>
    use {
      fill: none;
      stroke: #fff;
      stroke-width: 1;
    }
  </style>
  <defs style="display: none;">
    <g id="Privacy-shape">
      <path  d="M 1.7,18.6   c 5.7,1.2 14.2,-4.5 23.6,-0.8   c 1.7,2.3 1.7,2.3 3.4,0.0   c 9.4,-3.7 17.9,2.0 23.6,0.8
                            c 0.5,25.3 -20.2,22.5 -23.6,19.7   c -1.7,-1.4 -1.7,-1.4 -3.4,0.0   c -3.4,2.8 -24.1,5.6 -23.6,-19.7   Z"/>
      <path  d="M 21.9,30.7   c -7.8,0.0 -10.1,0.7 -11.8,-5.6   c  8.4,0.0  11.8,-1.4  11.8,5.6   Z"/>
      <path  d="M 32.1,30.7   c  7.8,0.0  10.1,0.7  11.8,-5.6   c -8.4,0.0 -11.8,-1.4 -11.8,5.6   Z"/>
    </g>
  </defs>
  <use xlink:href="#Privacy-shape"/>
</svg>