<!-- This Source Code Form is subject to the terms of the Mozilla Public
   - License, v. 2.0. If a copy of the MPL was not distributed with this
   - file, You can obtain one at http://mozilla.org/MPL/2.0/. -->
<svg width="16" height="16" viewBox="0 0 16 16" xmlns="http://www.w3.org/2000/svg" fill="#0b0b0b">
  <path d="M5 13.042H1a.5.5 0 1 0 0 1h4a.5.5 0 1 0 0-1zM12 13.042H8a.5.5 0 1 0 0 1h4a.5.5 0 1 0 0-1zM6.652 5.012A.427.427 0 0 1 6.752 5h6.541L9.646 1.354a.5.5 0 1 1 .708-.708l4.5 4.5a.498.498 0 0 1 0 .708l-4.5 4.5a.5.5 0 0 1-.708-.708L13.293 6H7.042v5.5a.5.5 0 1 1-1 0v-6a.5.5 0 0 1 .61-.488z"/>
</svg>
