<!-- This Source Code Form is subject to the terms of the Mozilla Public
   - License, v. 2.0. If a copy of the MPL was not distributed with this
   - file, You can obtain one at http://mozilla.org/MPL/2.0/. -->
<svg xmlns="http://www.w3.org/2000/svg" width="16" height="16" viewBox="0 0 16 16" fill="#0b0b0b">
  <!--path d="M6.7 8       l-2-2h2v2 
  l3.6-3.6c.2-.2.2-.5 0-.7-.2-.2-.5-.2-.7 0       l-2-2h2v2 
  L6 7.3 2.4 3.7            l-2-2h2v2          c-.2-.2-.5-.2-.7 0-.2.2-.2.5 0 .7       l-2-2h2v2 
  L5.3 8         l-2-2h2v2 
  l-3.6 3.6c-.2.2-.2.5 0 .7.2.2.5.2.7 0L6 8.7l3.6 3.6c.2.2.5.2.7 0 .2-.2.2-.5 0-.7L6.7 8z"/-->
  <!--path d="M6.7 8   
  l3.6-3.6c.2-.2.2-.5 0-.7-.2-.2-.5-.2-.7 0 
  L6 7.3 2.4 3.7                    c-.2-.2-.5-.2-.7 0-.2.2-.2.5 0 .7   
  L5.3 8       c .7.7.7.7 1.4 0z"/-->
  <path d="M6.7 3                
  l3.6 3.6                           c .2 .2 .2 .5 0 .7 -.2.2 -.5.2 -.7 0   
  L6 3.7 2.4 7.3                  c-.2.2-.5.2-.7 0 -.2-.2-.2-.5 0-.7   
  L5.3 3       c .7-.7.7-.7 1.4 0"/>
  <path d="M6.7 7                
  l3.6 3.6                           c .2 .2 .2 .5 0 .7 -.2.2 -.5.2 -.7 0   
  L6 7.7 2.4 11.3                  c-.2.2-.5.2-.7 0 -.2-.2-.2-.5 0-.7   
  L5.3 7       c .7-.7.7-.7 1.4 0"/>
  <!--path d="M6.7 12                
  l3.6 3.6                           c .2 .2 .2 .5 0 .7 -.2.2 -.5.2 -.7 0   
  L6 12.7 2.4 16.3                  c-.2.2-.5.2-.7 0 -.2-.2-.2-.5 0-.7   
  L5.3 12       c .7-.7.7-.7 1.4 0" /-->
</svg>
