<?xml version="1.0" encoding="utf-8"?>
<svg xmlns="http://www.w3.org/2000/svg"
     xmlns:xlink="http://www.w3.org/1999/xlink"
     x="0"
     y="0"
     width="16"
     height="16"
     viewBox="0 0 16 16">
  <style>
    use:not(:target) {
      display: none;
    }
    use {
      stroke: #0b0b0b;
      stroke-width: 1;
      fill: none;
      stroke-linejoin: round;
    }
  </style>
  <defs style="display: none;">
  <g id="v-collapse-shape">
    <path d="M 2.5,11.5  h 11  M 2.5,14.5  v -13  h 11  v 13  z" fill="none"/>
    <polygon points="5,4.5 11,4.5 8,9.5"/>
  </g>
  <g id="v-expand-shape">
    <path d="M 2.5,11.5  h 11  M 2.5,14.5  v -13  h 11  v 13  z" fill="none"/>
    <polygon points="5,8.5 11,8.5 8,3.5"/>
  </g>
  <g id="collapse-shape">
    <path d="M 11.5,2.5  v 11  M 14.5,2.5  h -13  v 11  h 13  z" fill="none"/>
    <polygon points="4.5,5 9.5,8 4.5,11" stroke-width="1"/>
  </g>
  <g id="expand-shape">
    <path d="M 11.5,2.5  v 11  M 14.5,2.5  h -13  v 11  h 13  z" fill="none"/>
    <polygon points="8.5,5 3.5,8 8.5,11" stroke-width="1"/>
  </g>
  </defs>
  <use id="collapse"   xlink:href="#collapse-shape"/>
  <use id="expand"     xlink:href="#expand-shape"/>
  <use id="v-collapse" xlink:href="#v-collapse-shape"/>
  <use id="v-expand"   xlink:href="#v-expand-shape"/>
</svg>