<?xml version="1.0" encoding="utf-8"?>
<svg xmlns="http://www.w3.org/2000/svg"
     xmlns:xlink="http://www.w3.org/1999/xlink"
     x="0"
     y="0"
     width="40"
     height="20"
     viewBox="0 0 40 20">
  <style>
    .t:not(:target){
      display: none;
    }
    use {
      stroke-width: 0;
      stroke: none;
      fill: #fff;
    }
  </style>
  <defs style="display: none;">
    <g id="Privacy-shape">
      <path  d="M 0,3.8   c 1.8,0.4  4.5,-1.7  7.5,-0.3   c 0.5,0.9  0.5,0.9  1,0.0   c 3.0,-1.4  5.7,0.7  7.5,0.3
                            c 0.1,9.6  -6.4,8.6  -7.5,7.5   c -0.5,-0.5  -0.5,-0.5  -1,0.0   c -1.1,1.1  -7.6,2.1  -7.5,-7.5   z
                M 6.5,8.2   c 0.0,-2.6  -1.0,-2.1  -3.7,-2.1   c 0.5,2.5  1.3,2.1  3.7,2.1   z
                M 9.5,8.2   c 2.4,0.0  3.2,0.4  3.7,-2.1   c -2.7,0.0  -3.7,-0.5  -3.7,2.1   z"/>
    </g>
  </defs>
  <g id="titlebar" class="t">
    <rect x="0" y="0" width="40" height="20"
        stroke-width="0" stroke="none" fill="#161616"/>
    <use xlink:href="#Privacy-shape" x="12" y="2"/>
  </g>
  <g id="titlebar-XPVista7" class="t">
    <path d="M 38.5,0   v 16   a 2.5,2.5 0 0,1 -2.5,2.5   h -32   a 2.5,2.5 0 0,1 -2.5,-2.5   v -16"
          stroke-width="1" stroke="#000" fill="#000" fill-opacity=".8125"/>
    <use xlink:href="#Privacy-shape" x="12" y="1"/>
  </g>
</svg>