<?xml version="1.0" encoding="utf-8"?>
<svg xmlns="http://www.w3.org/2000/svg"
     xmlns:xlink="http://www.w3.org/1999/xlink"
     x="0"
     y="0"
     width="16"
     height="16"
     viewBox="0 0 16 16">
  <style>
    use {
      fill: none;
      stroke: #8c8c8c;
      stroke-width: 1;
    }
  </style>
  <defs style="display: none;">
    <g id="Privacy-shape">
      <path  d="M 0.5,5.2   c 1.7,0.4 4.2,-1.6 7,-.3   c .5,.8 .5,.8 1,0   c 2.8,-1.3 5.3,0.7 7,.3
                            c 0.15,9 -6,8 -7,7   c -.5,-.5 -.5,-.5 -1,0   c -1,1 -7.15,2 -7,-7   Z"/>
      <path  d="M 6.5,9.5   c -2.3,0 -3,0.25 -3.5,-2   c 2.5,0 3.5,-.5 3.5,2   Z"/>
      <path  d="M 9.5,9.5   c 2.3,0 3,0.25 3.5,-2   c -2.5,0 -3.5,-.5 -3.5,2   Z"/>
    </g>
  </defs>
  <use xlink:href="#Privacy-shape"/>
</svg>