<?xml version="1.0" encoding="utf-8"?>
<svg xmlns="http://www.w3.org/2000/svg"
     xmlns:xlink="http://www.w3.org/1999/xlink"
     x="0"
     y="0"
     width="16"
     height="16"
     viewBox="0 0 16 16">
  <style>
    use {
      fill: none;
      stroke: #3c3c3c;
      stroke: #474747;
      stroke-width: 1;
    }
  </style>
  <defs style="display: none;">
    <g id="Options-try-shape">
      <circle cx="8" cy="8" r="2.75"/>
      <path d="M 8,8   m 7.370, 1.389
               l -1.114, 0.373   a 6.5,6.5 0 0,1 -0.586, 1.416   l 0.524, 1.051   a 7.5,7.5 0 0,1 -1.965, 1.965
               l -1.051, -0.524   a 6.5,6.5 0 0,1 -1.416,0.586   l -0.373,1.114   a 7.5,7.5 0 0,1 -2.779,0
               l -0.373, -1.114   a 6.5,6.5 0 0,1 -1.416, -0.586   l -1.051, 0.524   a 7.5,7.5 0 0,1 -1.965, -1.965
               l 0.524, -1.051   a 6.5,6.5 0 0,1 -0.586, -1.416   l -1.114, -0.373   a 7.5,7.5 0 0,1 0, -2.779
               l 1.114, -0.373   a 6.5,6.5 0 0,1 0.586, -1.416   l -0.524, -1.051   a 7.5,7.5 0 0,1 1.965, -1.965
               l 1.051, 0.524   a 6.5,6.5 0 0,1 1.416, -0.586   l 0.373, -1.114   a 7.5,7.5 0 0,1 2.779,0
               l 0.373, 1.114   a 6.5,6.5 0 0,1 1.416, 0.586   l 1.051, -0.524   a 7.5,7.5 0 0,1 1.965, 1.965
               l -0.524, 1.051   a 6.5,6.5 0 0,1 0.586, 1.416   l 1.114, 0.373   a 7.5,7.5 0 0,1 0, 2.779
               z"/>
    </g>
    <g id="Options-shape">
      <circle cx="8" cy="8" r="2.75"/>
      <path d="M 8,8   m 7.370, 1.389
               l -1.306, 0.319   a 6.3,6.3 0 0,1 -0.568, 1.372   l 0.698, 1.149   a 7.5,7.5 0 0,1 -1.965, 1.965
               l -1.149, -0.698   a 6.3,6.3 0 0,1 -1.372,0.568   l -0.319,1.306   a 7.5,7.5 0 0,1 -2.779,0
               l -0.319, -1.306   a 6.3,6.3 0 0,1 -1.372, -0.568   l -1.149, 0.698   a 7.5,7.5 0 0,1 -1.965, -1.965
               l 0.698, -1.149   a 6.3,6.3 0 0,1 -0.568, -1.372   l -1.306, -0.319   a 7.5,7.5 0 0,1 0, -2.779
               l 1.306, -0.319   a 6.3,6.3 0 0,1 0.568, -1.372   l -0.698, -1.149   a 7.5,7.5 0 0,1 1.965, -1.965
               l 1.149, 0.698   a 6.3,6.3 0 0,1 1.372, -0.568   l 0.319, -1.306   a 7.5,7.5 0 0,1 2.779,0
               l 0.319, 1.306   a 6.3,6.3 0 0,1 1.372, 0.568   l 1.149, -0.698   a 7.5,7.5 0 0,1 1.965, 1.965
               l -0.698, 1.149   a 6.3,6.3 0 0,1 0.568, 1.372   l 1.306, 0.319   a 7.5,7.5 0 0,1 0, 2.779
               z"/>
    </g>
  </defs>
  <use xlink:href="#Options-shape"/>
</svg>