<!-- This Source Code Form is subject to the terms of the Mozilla Public
   - License, v. 2.0. If a copy of the MPL was not distributed with this
   - file, You can obtain one at http://mozilla.org/MPL/2.0/. -->
<!--svg width="16" height="16" viewBox="0 0 16 16" xmlns="http://www.w3.org/2000/svg" fill="#babec3"-->
<svg xmlns="http://www.w3.org/2000/svg" xmlns:xlink="http://www.w3.org/1999/xlink" width="16" height="16" viewBox="0 0 16 16">
  <defs>
    <!--linearGradient id="i">
      <stop offset="0" stop-color="#141414"/>
      <stop offset="1" stop-color="#3c3c3c"/>
    </linearGradient-->
    <linearGradient id="i">
      <stop offset="0" stop-color="#262f3a"/>
      <stop offset="1" stop-color="#5e6b7a"/>
    </linearGradient>
    <linearGradient id="b">
      <stop offset="0" stop-color="#464f5a"/>
      <stop offset="1" stop-color="#7e8b9a"/>
    </linearGradient>
    <!--linearGradient id="a">
      <stop offset="0" stop-color="#6a7786"/>
      <stop offset="1" stop-color="#abb3bd"/>
    </linearGradient-->
    <linearGradient id="a">
      <stop offset="0" stop-color="#828f9e"/>
      <stop offset="1" stop-color="#bfc7d1"/>
    </linearGradient>
    <linearGradient xlink:href="#a" id="c" x1="13.108" y1="13.135" x2="2.763" y2="2.791" gradientUnits="userSpaceOnUse"/>
    <linearGradient xlink:href="#b" id="d" x1="14.815" y1="11.602" x2="4.34" y2="1.127" gradientUnits="userSpaceOnUse"/>
    <linearGradient xlink:href="#i" id="j" x1="14.815" y1="11.602" x2="4.34" y2="1.127" gradientUnits="userSpaceOnUse"/>
  </defs>


  <path d="M 5.1,15.7  c -.7,0 -.5,-.2 -1,-1  l -1.8,-10.9  c 0,-1 .5,-1.5 1.5,-1.5  l 9.4,0  c 1,0 1.5,.5 1.5,1.5  l -1.8,10.9  c -.5,.8 -.3,1 -1,1  Z "
        fill="url(#c)" stroke="url(#d)" stroke-width=".6" stroke-linejoin="round"/>


  <path d="M 6.5,2.5  v -.5  a 1.5,1.5 0 0,1 1.5,-1.5  h 1  a 1.5,1.5 0 0,1 1.5,1.5  v .5"
        stroke="url(#d)" stroke-width="1" fill="none"/>
  <path d="M 1.5,4  h 14  a .5,.5 0 0,1 0,1  h-14  a .5,.5 0 0,1 0,-1 z"
        fill="url(#j)" stroke-width="0" stroke="none"/>
  <path d="M 5.25,6.1   a .5,.5 0 0,1 .995,-.1  l .72,7.2  a .5,.5 0 0,1 -.995,.1  l -.72,-7.2  z
           M 8,6  a .5,.5 0 0,1 1,0  l 0,7.2  a .5,.5 0 0,1 -1,0  l 0,-7.2  z
           M 10.75,6  a .5,.5 0 0,1 .995,.1  l -.72,7.2  a .5,.5 0 0,1 -.995,-.1  l .72,-7.2  z"
        fill="url(#j)" stroke-width="0" stroke="none"/>


</svg>