<!-- This Source Code Form is subject to the terms of the Mozilla Public
   - License, v. 2.0. If a copy of the MPL was not distributed with this
   - file, You can obtain one at http://mozilla.org/MPL/2.0/. -->
<svg xmlns="http://www.w3.org/2000/svg" xmlns:xlink="http://www.w3.org/1999/xlink" width="16" height="16" viewBox="0 0 16 16">
  <defs>
    <linearGradient id="d">
      <stop offset="0" stop-color="#323232"/>
      <stop offset="1" stop-color="#646464"/>
    </linearGradient>
    <linearGradient id="c">
      <stop offset="0" stop-color="#b4b4b4"/>
      <stop offset="1" stop-color="#dcdcdc"/>
    </linearGradient>
    <linearGradient id="b">
      <stop offset="0" stop-color="#3c3c3c"/>
      <stop offset="1" stop-color="#646464"/>
    </linearGradient>
    <linearGradient id="a">
      <stop offset="0" stop-color="#505050"/>
      <stop offset="1" stop-color="#8c8c8c"/>
    </linearGradient>
    <linearGradient gradientTransform="matrix(.97143 0 0 1.08571 .229 -1125.879)" xlink:href="#a" id="e" x1="10.803" y1="1047.39" x2="4.726" y2="1041.559" gradientUnits="userSpaceOnUse"/>
    <linearGradient gradientTransform="matrix(.97143 0 0 1.08571 .229 -1125.879)" xlink:href="#b" id="f" x1="12.563" y1="1046.633" x2="5.974" y2="1040.229" gradientUnits="userSpaceOnUse"/>
    <linearGradient gradientTransform="translate(-1.333 -1210.423) scale(1.16667)" xlink:href="#c" id="g" x1="9.698" y1="1046.429" x2="5.893" y2="1042.623" gradientUnits="userSpaceOnUse"/>
    <linearGradient gradientTransform="translate(0 -1036.362)" xlink:href="#d" id="h" x1="9.023" y1="1045.897" x2="6.49" y2="1043.363" gradientUnits="userSpaceOnUse"/>
    <linearGradient id="strokeBrightColors">
      <stop offset="0" stop-color="#ffffff"/>
      <stop offset="1" stop-color="#efefef"/>
    </linearGradient>
    <linearGradient id="fillBrightColors">
      <stop offset="0" stop-color="#ffffff"/>
      <stop offset="1" stop-color="#c8c8c8"/>
    </linearGradient>
    <linearGradient id="fillBrightGradient"   xlink:href="#fillBrightColors"   x1="10.723" y1="11.283" x2="4.820" y2="4.952" gradientUnits="userSpaceOnUse"/>
    <linearGradient id="strokeBrightGradient" xlink:href="#strokeBrightColors" x1="12.563" y1="10.461" x2="5.974" y2="3.508" gradientUnits="userSpaceOnUse"/>
    <linearGradient id="strokeActiveColors">
      <stop offset="0" stop-color="#2959b8"/>
      <stop offset="1" stop-color="#83ace8"/>
    </linearGradient>
    <linearGradient id="fillActiveColors">
      <stop offset="0" stop-color="#5c87d0"/>
      <stop offset="1" stop-color="#abc7ed"/>
    </linearGradient>
    <linearGradient id="fillActiveGradient"   xlink:href="#fillActiveColors"   x1="10.723" y1="11.283" x2="4.820" y2="4.952" gradientUnits="userSpaceOnUse"/>
    <linearGradient id="strokeActiveGradient" xlink:href="#strokeActiveColors" x1="12.563" y1="10.461" x2="5.974" y2="3.508" gradientUnits="userSpaceOnUse"/>
  </defs>
  <style>
    #bright:target ~ #fullShape {
      fill: url(#fillBrightGradient);
      stroke: none;
      stroke-linejoin: round;
    }
    #bright:target ~ #outerShape {
      fill: none;
      stroke: url(#strokeBrightGradient);
      stroke-linejoin: round;
    }
    #bright:target ~ #iris {
      display: none;
    }
    #active:target ~ #fullShape {
      fill: url(#fillActiveGradient);
      stroke: none;
      stroke-linejoin: round;
    }
    #active:target ~ #outerShape {
      fill: none;
      stroke: url(#strokeActiveGradient);
      stroke-linejoin: round;
    }
    #active:target ~ #iris {
      display: none;
    }
  </style>
  <g id="bright"/>
  <g id="active"/>
  <path id="fullShape"
        d="M14.8 8c0 1.085-3.044 3.8-6.8 3.8S1.2 9.085 1.2 8 4.244 4.2 8 4.2s6.8 2.715 6.8 3.8
           M11.5 8 a 3.5,3.5 0 0 0 -7,0 a 3.5,3.5 0 0 0 7,0
           M9.5 8 a 1.5,1.5 0 0 1 -3,0 a 1.5,1.5 0 0 1 3,0  M14.8 8 z" 
  style="marker:none" fill="url(#je)" stroke-linejoin="round"/>
  <path id="outerShape"
        d="M14.8 8c0 1.085-3.044 3.8-6.8 3.8S1.2 9.085 1.2 8 4.244 4.2 8 4.2s6.8 2.715 6.8 3.8z" 
        style="marker:none" fill="url(#e)" stroke="url(#f)" stroke-width=".4" stroke-linejoin="round"/>
  <g id="iris">
    <circle r="3.5" cy="8" cx="8" style="marker:none" fill="url(#g)"/>
    <circle r="2" cy="8" cx="8" style="marker:none" fill="url(#h)"/>
  </g>
</svg>
