<?xml version="1.0" encoding="utf-8"?>
<svg xmlns="http://www.w3.org/2000/svg"
     xmlns:xlink="http://www.w3.org/1999/xlink"
     x="0"
     y="0"
     width="16"
     height="16"
     viewBox="0 0 16 16">
  <style>
    use {
      fill: none;
      stroke: #474747;
      stroke-width: 1;
    }
  </style>
  <defs style="display: none;">
    <g id="Addons-shape">
      <path d="M 0.5,10   v 2.75   a 1.75,1.75 0 0,0 1.75,1.75
               h 2.75   v -.05   a 1.85,1.85 0 1,1 3,0   v .05   h 1.75   a 1.75,1.75 0 0,0 1.75,-1.75   
               v -3   h .05   a 1.9,1.9 0 1,0 0,-3   h-.05   v -1.5   a 1.75,1.75 0 0,0 -1.75,-1.75   
               h -1.5   v -.05   a 1.9,1.9 0 1,0 -3,0   v .05   h -3   a 1.75,1.75 0 0,0 -1.75,1.75
               v 1.75   h .05   a 1.85,1.85 0 1,1 0,3   h-.05   Z"/>
    </g>
  </defs>
  <use xlink:href="#Addons-shape"/>
</svg>